<svg width="21" height="26" viewBox="0 0 21 26" fill="none" xmlns="http://www.w3.org/2000/svg">
    <path
        d="M19.5415 12.4203L17.9268 8.1974L14.9045 4.01591L10.2261 0L5.54779 4.01591L2.48408 8.1974L0.86943 12.4203L0 17.1814L0.703824 20.5349L2.73249 23.226L6.1274 25.0476L10.2261 25.9999L14.2835 25.0476L17.6784 23.226L19.7485 20.5349L20.4109 17.1814L19.5415 12.4203Z"
        fill="url(#paint0_linear_111_1971)" />
    <path
        d="M14.8631 10.1018L10.2262 5.13367L5.54782 10.1018L4.05737 15.5253L5.67203 19.1686L10.2262 20.8661L14.7389 19.1686L16.395 15.5253L14.8631 10.1018Z"
        fill="#81CBFF" />
    <path d="M10.2263 0L7.1626 4.30572L10.2263 5.13374L13.29 4.30572L10.2263 0Z"
        fill="url(#paint1_linear_111_1971)" />
    <path d="M10.2262 0L9.48096 4.30572L10.2262 5.13374L10.9714 4.30572L10.2262 0Z"
        fill="url(#paint2_linear_111_1971)" style="mix-blend-mode:soft-light" />
    <path d="M10.2262 14.2005L9.48096 5.92027L10.2262 5.13367L10.9714 5.92027L10.2262 14.2005Z"
        fill="url(#paint3_linear_111_1971)" style="mix-blend-mode:soft-light" />
    <path d="M13.29 4.30566L17.927 8.19735L14.8633 10.1018L10.2263 5.13369L13.29 4.30566Z"
        fill="url(#paint4_linear_111_1971)" />
    <path
        d="M17.927 8.19739L14.8633 10.1019L16.3951 15.5254L20.4111 17.1814L19.5416 12.4203L17.927 8.19739Z"
        fill="url(#paint5_linear_111_1971)" />
    <path d="M10.2263 20.8664L13.7454 22.2326L14.7391 19.1689L10.2263 20.8664Z"
        fill="url(#paint6_linear_111_1971)" />
    <path
        d="M13.7453 22.2326L10.2262 20.8663L6.66566 22.2326L6.12744 25.0478L10.2262 26.0001L14.2835 25.0478L13.7453 22.2326Z"
        fill="url(#paint7_linear_111_1971)" />
    <g opacity="0.1" style="mix-blend-mode:multiply">
        <path d="M10.2263 20.8663L8.23901 25.0478L10.2263 26.0001L12.1721 25.0478L10.2263 20.8663Z"
            fill="#0644AB" />
    </g>
    <path
        d="M14.2836 25.0476L13.7454 22.2323L14.739 19.1687L18.4237 16.3534L20.411 17.1814L19.7486 20.5349L17.6785 23.226L14.2836 25.0476Z"
        fill="url(#paint8_linear_111_1971)" />
    <path d="M13.29 4.30556L14.9047 4.01575L17.927 8.19724L13.29 4.30556Z"
        fill="url(#paint9_linear_111_1971)" />
    <path d="M10.2263 0L13.29 4.30572L14.9047 4.01591L10.2263 0Z" fill="#9FD0F4" />
    <g opacity="0.1" style="mix-blend-mode:multiply">
        <path d="M14.7393 19.1689L17.6788 23.2262L19.7488 20.5352L14.7393 19.1689Z" fill="#0644AB" />
    </g>
    <path d="M16.3953 15.5254L18.424 16.3534L14.7393 19.1687L16.3953 15.5254Z"
        fill="url(#paint10_linear_111_1971)" />
    <path d="M7.16249 4.30566L2.48413 8.19735L5.54783 10.1018L10.2262 5.13369L7.16249 4.30566Z"
        fill="url(#paint11_linear_111_1971)" />
    <path
        d="M2.48408 8.19739L5.54779 10.1019L4.05733 15.5254L0 17.1814L0.86943 12.4203L2.48408 8.19739Z"
        fill="url(#paint12_linear_111_1971)" />
    <path d="M10.2265 20.8664L6.666 22.2326L5.67236 19.1689L10.2265 20.8664Z"
        fill="url(#paint13_linear_111_1971)" />
    <path
        d="M6.1274 25.0476L6.66562 22.2323L5.67199 19.1687L1.98727 16.3534L0 17.1814L0.703824 20.5349L2.73249 23.226L6.1274 25.0476Z"
        fill="url(#paint14_linear_111_1971)" />
    <path d="M7.16249 4.30556L5.54783 4.01575L2.48413 8.19724L7.16249 4.30556Z"
        fill="url(#paint15_linear_111_1971)" />
    <path d="M10.2262 0L7.1625 4.30572L5.54785 4.01591L10.2262 0Z" fill="#5DABE8" />
    <g opacity="0.1" style="mix-blend-mode:multiply">
        <path d="M5.67227 19.1689L2.73277 23.2262L0.704102 20.5352L5.67227 19.1689Z" fill="#0644AB" />
    </g>
    <g opacity="0.1" style="mix-blend-mode:multiply">
        <path d="M0.869629 12.4204L5.54798 10.1019L4.05753 15.5255L0.869629 12.4204Z" fill="#0644AB" />
    </g>
    <g opacity="0.1" style="mix-blend-mode:multiply">
        <path d="M19.5416 12.4204L14.8633 10.1019L16.3951 15.5255L19.5416 12.4204Z" fill="#0644AB" />
    </g>
    <path d="M4.05762 15.5254L1.98755 16.3534L5.67227 19.1687L4.05762 15.5254Z"
        fill="url(#paint16_linear_111_1971)" />
    <path opacity="0.3"
        d="M18.3822 11.9714L16.8504 7.99689L13.9937 4.02239L9.60512 0.254883L5.17517 4.02239L2.31848 7.99689L0.786627 11.9714L0 16.4427L0.621021 19.5892L2.56689 22.1146L5.75479 23.8535L9.60512 24.7643L13.414 23.8535L16.6434 22.1146L18.5478 19.5892L19.2102 16.4427L18.3822 11.9714Z"
        fill="url(#paint17_radial_111_1971)" style="mix-blend-mode:overlay" />
    <defs>
        <linearGradient id="paint0_linear_111_1971" x1="7.01961" y1="39.389" x2="-16.1799"
            y2="16.1893" gradientUnits="userSpaceOnUse">
            <stop stop-color="#165EBB" />
            <stop offset="1" stop-color="#5CC2FD" />
        </linearGradient>
        <linearGradient id="paint1_linear_111_1971" x1="8.05811" y1="5.12795" x2="8.05811"
            y2="-0.00952212" gradientUnits="userSpaceOnUse">
            <stop stop-color="#165EBB" />
            <stop offset="1" stop-color="#5CC2FD" />
        </linearGradient>
        <linearGradient id="paint2_linear_111_1971" x1="1.34433" y1="5.12795" x2="1.34433"
            y2="-0.00952212" gradientUnits="userSpaceOnUse">
            <stop stop-color="white" />
            <stop offset="1" stop-color="#49A7EB" />
        </linearGradient>
        <linearGradient id="paint3_linear_111_1971" x1="-17.36" y1="5.12787" x2="-17.36"
            y2="14.1856" gradientUnits="userSpaceOnUse">
            <stop stop-color="white" />
            <stop offset="1" stop-color="#49A7EB" />
        </linearGradient>
        <linearGradient id="paint4_linear_111_1971" x1="7.32946" y1="8.45405" x2="14.8156"
            y2="1.68655" gradientUnits="userSpaceOnUse">
            <stop stop-color="white" />
            <stop offset="1" stop-color="#49A7EB" />
        </linearGradient>
        <linearGradient id="paint5_linear_111_1971" x1="10.8159" y1="8.04627" x2="19.3098"
            y2="5.08777" gradientUnits="userSpaceOnUse">
            <stop stop-color="#165EBB" />
            <stop offset="1" stop-color="#5CC2FD" />
        </linearGradient>
        <linearGradient id="paint6_linear_111_1971" x1="12.9162" y1="17.7584" x2="15.2252"
            y2="23.2747" gradientUnits="userSpaceOnUse">
            <stop stop-color="white" />
            <stop offset="1" stop-color="#49A7EB" />
        </linearGradient>
        <linearGradient id="paint7_linear_111_1971" x1="8.59538" y1="25.9984" x2="8.59538"
            y2="20.861" gradientUnits="userSpaceOnUse">
            <stop stop-color="#165EBB" />
            <stop offset="1" stop-color="#5CC2FD" />
        </linearGradient>
        <linearGradient id="paint8_linear_111_1971" x1="20.5021" y1="12.472" x2="25.919"
            y2="21.8548" gradientUnits="userSpaceOnUse">
            <stop stop-color="#165EBB" />
            <stop offset="1" stop-color="#5CC2FD" />
        </linearGradient>
        <linearGradient id="paint9_linear_111_1971" x1="10.9517" y1="6.24767" x2="17.6496"
            y2="0.756297" gradientUnits="userSpaceOnUse">
            <stop stop-color="#165EBB" />
            <stop offset="1" stop-color="#5CC2FD" />
        </linearGradient>
        <linearGradient id="paint10_linear_111_1971" x1="14.3319" y1="13.4698" x2="19.7679"
            y2="16.2229" gradientUnits="userSpaceOnUse">
            <stop stop-color="#3C7BCD" />
            <stop offset="1" stop-color="#79D3FF" />
        </linearGradient>
        <linearGradient id="paint11_linear_111_1971" x1="13.1003" y1="8.45405" x2="5.61438"
            y2="1.68676" gradientUnits="userSpaceOnUse">
            <stop stop-color="#3C7BCD" />
            <stop offset="1" stop-color="#79D3FF" />
        </linearGradient>
        <linearGradient id="paint12_linear_111_1971" x1="9.61382" y1="8.04627" x2="1.1199"
            y2="5.08777" gradientUnits="userSpaceOnUse">
            <stop stop-color="white" />
            <stop offset="1" stop-color="#49A7EB" />
        </linearGradient>
        <linearGradient id="paint13_linear_111_1971" x1="7.5139" y1="17.7584" x2="5.20489"
            y2="23.2747" gradientUnits="userSpaceOnUse">
            <stop stop-color="#50B0F1" />
            <stop offset="1" stop-color="#003CA6" />
        </linearGradient>
        <linearGradient id="paint14_linear_111_1971" x1="-0.0724524" y1="12.472" x2="-5.48939"
            y2="21.8548" gradientUnits="userSpaceOnUse">
            <stop stop-color="white" />
            <stop offset="1" stop-color="#49A7EB" />
        </linearGradient>
        <linearGradient id="paint15_linear_111_1971" x1="9.47765" y1="6.24767" x2="2.77971"
            y2="0.756285" gradientUnits="userSpaceOnUse">
            <stop stop-color="white" />
            <stop offset="1" stop-color="#49A7EB" />
        </linearGradient>
        <linearGradient id="paint16_linear_111_1971" x1="6.09829" y1="13.4698" x2="0.66228"
            y2="16.223" gradientUnits="userSpaceOnUse">
            <stop stop-color="#49A7EB" />
            <stop offset="1" stop-color="white" />
        </linearGradient>
        <radialGradient id="paint17_radial_111_1971" cx="0" cy="0" r="1"
            gradientUnits="userSpaceOnUse"
            gradientTransform="translate(9.95579 5.20397) scale(13.9117 13.9116)">
            <stop stop-color="white" />
            <stop offset="1" stop-color="#1A274A" />
        </radialGradient>
    </defs>
</svg>